<?xml version="1.0" standalone="no"?>
<!DOCTYPE svg PUBLIC "-//W3C//DTD SVG 20010904//EN"
 "http://www.w3.org/TR/2001/REC-SVG-20010904/DTD/svg10.dtd">
<svg version="1.0" xmlns="http://www.w3.org/2000/svg"
 width="512.000000pt" height="512.000000pt" viewBox="0 0 512.000000 512.000000"
 preserveAspectRatio="xMidYMid meet">
<metadata>
Created by potrace 1.14, written by Peter Selinger 2001-2017
</metadata>
<g transform="translate(0.000000,512.000000) scale(0.100000,-0.100000)"
fill="#000000" stroke="none">
<path d="M1215 3669 c-444 -65 -823 -403 -935 -836 -31 -120 -31 -118 -35
-258 -6 -189 23 -334 100 -501 132 -287 415 -523 715 -597 110 -27 121 -29
250 -32 251 -7 464 58 670 203 61 43 171 146 215 202 94 117 287 372 284 374
-2 2 -26 16 -53 32 -28 15 -86 55 -129 87 -65 48 -82 56 -91 45 -7 -7 -44 -49
-82 -93 -188 -217 -269 -280 -432 -336 -90 -30 -106 -33 -227 -33 -220 0 -371
61 -521 209 -105 104 -168 213 -205 355 -18 70 -20 236 -5 311 57 270 275 488
545 545 119 25 316 9 458 -36 117 -38 274 -122 340 -182 17 -16 30 -19 54 -14
59 11 74 -1 179 -140 126 -168 170 -199 229 -158 30 22 28 32 -59 250 -39 98
-73 193 -74 211 -4 43 -14 54 -120 124 -147 99 -317 177 -473 219 -108 29
-117 31 -213 46 -65 10 -325 12 -385 3z"/>
<path d="M3495 3664 c-115 -20 -237 -59 -342 -110 -81 -39 -205 -117 -240
-150 -7 -7 -25 -22 -40 -34 l-27 -21 46 -47 c25 -26 55 -58 67 -72 32 -36 91
-126 91 -139 0 -17 9 -13 42 14 47 40 157 100 228 125 159 56 353 63 495 17
242 -79 424 -276 485 -522 23 -94 26 -316 7 -411 -46 -218 -193 -377 -417
-451 -74 -24 -259 -24 -350 0 -77 21 -233 95 -275 132 -127 109 -197 203 -250
332 -45 112 -54 170 -56 389 l-2 170 -68 0 c-53 -1 -73 3 -95 20 -52 38 -68
70 -69 133 0 51 4 64 32 98 l31 40 -91 91 c-50 51 -96 92 -102 92 -22 0 -38
-29 -32 -59 4 -16 38 -110 78 -208 79 -196 87 -233 68 -301 -28 -100 -130
-162 -243 -148 -91 12 -148 54 -245 183 -75 98 -87 110 -103 99 -10 -6 -24
-28 -30 -49 -15 -48 0 -82 87 -192 115 -148 245 -251 429 -341 l95 -47 82
-131 c161 -257 215 -332 294 -412 159 -160 361 -265 580 -299 111 -17 304 -13
398 10 360 85 651 345 766 683 46 135 60 229 56 382 -3 144 -5 152 -37 275
-111 423 -463 755 -901 851 -97 22 -338 26 -442 8z"/>
</g>
</svg>
